<svg width="15" height="13" viewBox="0 0 15 13" fill="currentColor" xmlns="http://www.w3.org/2000/svg">
<path d="M11.25 0C9.92045 0 8.48864 0.290909 7.5 1.09091C6.51136 0.290909 5.07955 0 3.75 0C2.42045 0 0.988636 0.290909 0 1.09091V11.7455C0 12.2182 0.497727 12.0727 0.511364 12.0727C1.43182 11.6 2.76136 11.2727 3.75 11.2727C5.07955 11.2727 6.51136 11.5636 7.5 12.3636C8.42045 11.7455 10.0909 11.2727 11.25 11.2727C12.375 11.2727 13.5341 11.4909 14.4886 12.0364C14.7682 12.1891 15 11.8982 15 11.7091V1.09091C13.9841 0.276364 12.525 0 11.25 0ZM13.6364 10.1818C12.8864 9.92727 12.0682 9.81818 11.25 9.81818C10.0909 9.81818 8.42045 10.2909 7.5 10.9091V2.54545C8.42045 1.92727 10.0909 1.45455 11.25 1.45455C12.0682 1.45455 12.8864 1.56364 13.6364 1.81818V10.1818Z" fill="#4F4F4F"/>
</svg>
