<svg width="14" height="15" viewBox="0 0 14 15" fill="currentColor" xmlns="http://www.w3.org/2000/svg">
<path d="M6.993 0C3.129 0 0 3.34507 0 7.46667C0 11.5883 3.129 14.9333 6.993 14.9333C10.864 14.9333 14 11.5883 14 7.46667C14 3.34507 10.864 0 6.993 0ZM11.844 4.48H9.779C9.55992 3.55522 9.2355 2.66254 8.813 1.82187C10.0899 2.29078 11.1658 3.23435 11.844 4.48ZM7 1.5232C7.581 2.4192 8.036 3.41227 8.337 4.48H5.663C5.964 3.41227 6.419 2.4192 7 1.5232ZM1.582 8.96C1.47 8.48213 1.4 7.98187 1.4 7.46667C1.4 6.95147 1.47 6.4512 1.582 5.97333H3.948C3.892 6.46613 3.85 6.95893 3.85 7.46667C3.85 7.9744 3.892 8.4672 3.948 8.96H1.582ZM2.156 10.4533H4.221C4.445 11.3867 4.767 12.2827 5.187 13.1115C3.90878 12.6451 2.83208 11.7009 2.156 10.4533ZM4.221 4.48H2.156C2.83208 3.23245 3.90878 2.28821 5.187 1.82187C4.7645 2.66254 4.44008 3.55522 4.221 4.48ZM7 13.4101C6.419 12.5141 5.964 11.5211 5.663 10.4533H8.337C8.036 11.5211 7.581 12.5141 7 13.4101ZM8.638 8.96H5.362C5.299 8.4672 5.25 7.9744 5.25 7.46667C5.25 6.95893 5.299 6.45867 5.362 5.97333H8.638C8.701 6.45867 8.75 6.95893 8.75 7.46667C8.75 7.9744 8.701 8.4672 8.638 8.96ZM8.813 13.1115C9.233 12.2827 9.555 11.3867 9.779 10.4533H11.844C11.1658 11.699 10.0899 12.6426 8.813 13.1115ZM10.052 8.96C10.108 8.4672 10.15 7.9744 10.15 7.46667C10.15 6.95893 10.108 6.46613 10.052 5.97333H12.418C12.53 6.4512 12.6 6.95147 12.6 7.46667C12.6 7.98187 12.53 8.48213 12.418 8.96H10.052Z" fill="#4F4F4F"/>
</svg>
