<svg width="14" height="15" viewBox="0 0 14 15" fill="currentColor" xmlns="http://www.w3.org/2000/svg">
<path d="M7 0C3.136 0 0 3.34507 0 7.46667C0 11.5883 3.136 14.9333 7 14.9333C10.864 14.9333 14 11.5883 14 7.46667C14 3.34507 10.864 0 7 0ZM7 2.24C8.162 2.24 9.1 3.24053 9.1 4.48C9.1 5.71947 8.162 6.72 7 6.72C5.838 6.72 4.9 5.71947 4.9 4.48C4.9 3.24053 5.838 2.24 7 2.24ZM7 12.8427C6.1683 12.8427 5.34953 12.6231 4.61669 12.2036C3.88386 11.7841 3.25974 11.1777 2.8 10.4384C2.821 8.95253 5.6 8.13867 7 8.13867C8.393 8.13867 11.179 8.95253 11.2 10.4384C10.7403 11.1777 10.1161 11.7841 9.3833 12.2036C8.65047 12.6231 7.8317 12.8427 7 12.8427Z" fill="#4F4F4F"/>
</svg>
