<svg width="101" height="40" viewBox="0 0 101 40" fill="none" xmlns="http://www.w3.org/2000/svg">
<g filter="url(#filter0_d_151_44)">
<path d="M14.3777 29.2956C13.609 29.2956 12.9575 29.2175 12.4103 29.0611C11.8631 28.9048 11.4071 28.6442 11.0423 28.2794C10.6775 27.9146 10.4169 27.4325 10.2475 26.8462C10.0782 26.2469 10 25.5303 10 24.6704V10.5081H12.9315V24.4489C12.9315 25.3219 13.0748 25.9212 13.3614 26.2469C13.6481 26.5726 14.1692 26.742 14.9379 26.742C15.1333 26.742 15.3027 26.742 15.446 26.729C15.5894 26.7159 15.7327 26.7029 15.876 26.6899V29.2175C15.7327 29.2566 15.4982 29.2696 15.1855 29.2826C14.8337 29.2957 14.5731 29.2956 14.3777 29.2956Z" fill="white"/>
<path d="M24.3708 29.452C23.4327 29.452 22.5467 29.3087 21.6999 29.009C20.866 28.7224 20.1364 28.2664 19.498 27.6801C18.8726 27.0808 18.3645 26.3381 17.9867 25.4261C17.6088 24.5141 17.4395 23.4588 17.4395 22.2341V21.6999C17.4395 20.5273 17.6219 19.511 17.9736 18.6381C18.3254 17.7652 18.8075 17.0486 19.4198 16.4623C20.0322 15.889 20.7357 15.4591 21.5435 15.1724C22.3383 14.8858 23.1982 14.7425 24.0972 14.7425C26.2469 14.7425 27.8886 15.3158 29.0351 16.4753C30.1816 17.6349 30.7549 19.2765 30.7549 21.4263V22.9246H20.41C20.423 23.6542 20.5533 24.2665 20.7748 24.7747C20.9963 25.2828 21.296 25.6867 21.6608 25.9994C22.0256 26.3121 22.4425 26.5336 22.9115 26.6769C23.3806 26.8202 23.8627 26.8853 24.3577 26.8853C25.374 26.8853 26.1166 26.729 26.5857 26.4033C27.0547 26.0776 27.3804 25.6606 27.5628 25.1525H30.4943C30.2077 26.5596 29.5172 27.628 28.3967 28.3446C27.2892 29.0872 25.9473 29.452 24.3708 29.452ZM24.2405 17.3092C23.7454 17.3092 23.2633 17.3743 22.8203 17.4916C22.3643 17.6219 21.9735 17.8173 21.6217 18.0909C21.2699 18.3645 20.9963 18.7163 20.7879 19.1593C20.5794 19.5892 20.4621 20.1234 20.4361 20.7488H27.8495C27.8364 20.0973 27.7322 19.5371 27.5368 19.0941C27.3544 18.6511 27.0938 18.2994 26.7811 18.0258C26.4554 17.7652 26.0775 17.5697 25.6476 17.4655C25.2046 17.3613 24.7356 17.3092 24.2405 17.3092Z" fill="white"/>
<path d="M39.0284 29.452C37.9861 29.452 37.0871 29.3347 36.3445 29.1002C35.6018 28.8657 34.9895 28.553 34.5074 28.1622C34.0123 27.7713 33.6475 27.3153 33.3869 26.7941C33.1264 26.273 32.97 25.7258 32.8918 25.1525H35.8233C35.9536 25.6476 36.2533 26.0645 36.7353 26.3902C37.2174 26.716 37.9731 26.8853 39.0284 26.8853C40.201 26.8853 41.0218 26.729 41.5039 26.4033C41.986 26.0775 42.2205 25.6606 42.2205 25.1525C42.2205 24.918 42.1553 24.7095 42.0381 24.5011C41.9078 24.2926 41.7123 24.1102 41.4387 23.9408C41.1651 23.7714 40.8003 23.6151 40.3313 23.4718C39.8753 23.3285 39.289 23.2112 38.5985 23.12C37.8037 23.0158 37.0741 22.8594 36.4096 22.651C35.7582 22.4425 35.1979 22.1819 34.7289 21.8432C34.2729 21.5044 33.9081 21.1005 33.6605 20.6185C33.413 20.1364 33.2827 19.5631 33.2827 18.8856C33.2827 18.3124 33.4 17.7782 33.6345 17.2701C33.869 16.762 34.2208 16.319 34.7028 15.9542C35.1849 15.5763 35.7842 15.2897 36.5008 15.0552C37.2174 14.8337 38.0643 14.7164 39.0154 14.7164C39.9404 14.7164 40.7352 14.8337 41.4127 15.0682C42.0902 15.3027 42.6504 15.6154 43.1064 16.0063C43.5624 16.3971 43.9012 16.8532 44.1487 17.3743C44.3832 17.8955 44.5396 18.4427 44.6178 19.0159H41.6863C41.543 18.4687 41.2563 18.0388 40.8264 17.7391C40.3964 17.4395 39.7971 17.2831 39.0284 17.2831C37.9861 17.2831 37.2565 17.4394 36.8396 17.7652C36.4357 18.0909 36.2272 18.4557 36.2272 18.8856C36.2272 19.1332 36.2793 19.3547 36.3836 19.5501C36.4878 19.7455 36.6702 19.9149 36.9177 20.0713C37.1653 20.2276 37.504 20.3579 37.947 20.4882C38.377 20.6185 38.9372 20.7097 39.6147 20.7748C40.4355 20.8791 41.1782 21.0354 41.8687 21.2569C42.5462 21.4654 43.1325 21.752 43.6276 22.0907C44.1096 22.4425 44.4875 22.8594 44.7611 23.3676C45.0347 23.8757 45.165 24.462 45.165 25.1395C45.165 25.7388 45.0347 26.3121 44.7741 26.8332C44.5135 27.3544 44.1357 27.8104 43.6276 28.1882C43.1195 28.566 42.481 28.8787 41.7123 29.1002C40.9306 29.3478 40.0316 29.452 39.0284 29.452Z" fill="white"/>
<path d="M53.412 29.452C52.3697 29.452 51.4707 29.3347 50.728 29.1002C49.9854 28.8657 49.373 28.553 48.891 28.1622C48.3959 27.7713 48.0311 27.3153 47.7705 26.7941C47.5099 26.273 47.3536 25.7258 47.2754 25.1525H50.2069C50.3372 25.6476 50.6368 26.0645 51.1189 26.3902C51.601 26.716 52.3566 26.8853 53.412 26.8853C54.5845 26.8853 55.4054 26.729 55.8874 26.4033C56.3695 26.0775 56.604 25.6606 56.604 25.1525C56.604 24.918 56.5389 24.7095 56.4216 24.5011C56.2913 24.2926 56.0959 24.1102 55.8223 23.9408C55.5487 23.7714 55.1839 23.6151 54.7148 23.4718C54.2588 23.3285 53.6725 23.2112 52.982 23.12C52.1872 23.0158 51.4576 22.8594 50.7932 22.651C50.1417 22.4425 49.5815 22.1819 49.1125 21.8432C48.6564 21.5044 48.2916 21.1005 48.0441 20.6185C47.7965 20.1364 47.6663 19.5631 47.6663 18.8856C47.6663 18.3124 47.7835 17.7782 48.018 17.2701C48.2526 16.762 48.6043 16.319 49.0864 15.9542C49.5685 15.5763 50.1678 15.2897 50.8844 15.0552C51.601 14.8337 52.4478 14.7164 53.3989 14.7164C54.324 14.7164 55.1187 14.8337 55.7962 15.0682C56.4737 15.3027 57.034 15.6154 57.49 16.0063C57.946 16.3971 58.2847 16.8532 58.5323 17.3743C58.7668 17.8955 58.9231 18.4427 59.0013 19.0159H56.0698C55.9265 18.4687 55.6399 18.0388 55.2099 17.7391C54.78 17.4395 54.1807 17.2831 53.412 17.2831C52.3697 17.2831 51.64 17.4394 51.2231 17.7652C50.8192 18.0909 50.6108 18.4557 50.6108 18.8856C50.6108 19.1332 50.6629 19.3547 50.7671 19.5501C50.8713 19.7455 51.0537 19.9149 51.3013 20.0713C51.5488 20.2276 51.8876 20.3579 52.3306 20.4882C52.7605 20.6185 53.3208 20.7097 53.9983 20.7748C54.8191 20.8791 55.5617 21.0354 56.2522 21.2569C56.9297 21.4654 57.516 21.752 58.0111 22.0907C58.4932 22.4425 58.871 22.8594 59.1446 23.3676C59.4052 23.8757 59.5485 24.462 59.5485 25.1395C59.5485 25.7388 59.4182 26.3121 59.1577 26.8332C58.8971 27.3544 58.5192 27.8104 58.0111 28.1882C57.503 28.566 56.8646 28.8787 56.0959 29.1002C55.3272 29.3478 54.4282 29.452 53.412 29.452Z" fill="white"/>
<path d="M78.4663 15.0421H81.1893V17.4134C81.5281 16.6968 82.0753 16.0844 82.844 15.5503C83.6127 15.0161 84.5898 14.7555 85.8015 14.7555C87.5213 14.7555 88.8242 15.2245 89.6971 16.1496C90.5701 17.0876 91 18.4426 91 20.2406V29.1653H88.0555V20.9051C88.0555 19.7195 87.808 18.8205 87.3129 18.2081C86.8178 17.6088 85.997 17.2961 84.8634 17.2961C84.2381 17.2961 83.7169 17.4003 83.2739 17.6088C82.844 17.8173 82.4792 18.0778 82.2056 18.4036C81.932 18.7293 81.7235 19.1201 81.5932 19.5501C81.4629 19.98 81.3978 20.436 81.3978 20.8921V29.1523H78.4663V15.0421V15.0421Z" fill="#A216A5"/>
<path d="M70.1148 13.166H67.1833V19.3286H70.1148V13.166Z" fill="#A216A5"/>
<path d="M75.0007 18.7293C74.649 17.8694 74.1539 17.1398 73.5415 16.5404C72.9682 15.9932 72.3038 15.5633 71.5351 15.2636V18.5729C71.8087 18.8856 72.0432 19.2765 72.2256 19.7195C72.4471 20.2667 72.5643 20.9311 72.5643 21.6868V22.221C72.5643 23.0548 72.4471 23.7714 72.2256 24.3577C72.0041 24.944 71.7045 25.4261 71.3396 25.7909C70.9748 26.1687 70.5579 26.4423 70.0889 26.6117C69.6198 26.7941 69.1247 26.8723 68.6036 26.8723C68.0824 26.8723 67.6004 26.7811 67.1183 26.6117C66.6493 26.4293 66.2324 26.1557 65.8675 25.7909C65.5027 25.413 65.2161 24.944 64.9946 24.3577C64.7731 23.7714 64.6559 23.0548 64.6559 22.221V21.6868C64.6559 20.9181 64.7731 20.2667 64.9946 19.7195C65.19 19.2244 65.4506 18.8074 65.7763 18.4687V15.2375C64.9816 15.5372 64.278 15.9672 63.6787 16.5404C63.0533 17.1398 62.5713 17.8694 62.2195 18.7293C61.8677 19.5892 61.6853 20.5794 61.6853 21.6998V22.234C61.6853 23.4196 61.8677 24.4619 62.2195 25.3609C62.5713 26.2599 63.0664 27.0026 63.6787 27.6149C64.3041 28.2142 65.0337 28.6702 65.8806 28.9829C66.7274 29.2956 67.6395 29.452 68.6166 29.452C69.5938 29.452 70.5058 29.2956 71.3527 28.9829C72.1995 28.6702 72.9292 28.2142 73.5545 27.6149C74.1799 27.0156 74.662 26.2599 75.0138 25.3609C75.3655 24.4619 75.5479 23.4196 75.5479 22.234V21.6998C75.5349 20.5794 75.3525 19.5892 75.0007 18.7293Z" fill="#A216A5"/>
</g>
<defs>
<filter id="filter0_d_151_44" x="0" y="0.508118" width="101" height="38.9439" filterUnits="userSpaceOnUse" color-interpolation-filters="sRGB">
<feFlood flood-opacity="0" result="BackgroundImageFix"/>
<feColorMatrix in="SourceAlpha" type="matrix" values="0 0 0 0 0 0 0 0 0 0 0 0 0 0 0 0 0 0 127 0" result="hardAlpha"/>
<feOffset/>
<feGaussianBlur stdDeviation="5"/>
<feComposite in2="hardAlpha" operator="out"/>
<feColorMatrix type="matrix" values="0 0 0 0 0 0 0 0 0 0 0 0 0 0 0 0 0 0 0.35 0"/>
<feBlend mode="normal" in2="BackgroundImageFix" result="effect1_dropShadow_151_44"/>
<feBlend mode="normal" in="SourceGraphic" in2="effect1_dropShadow_151_44" result="shape"/>
</filter>
</defs>
</svg>
